<svg style="stroke-linecap:round;stroke-linejoin:round;stroke-miterlimit:1.5;fill-rule:evenodd;clip-rule:evenodd;overflow:hidden" viewBox="0 0 2599 1182" xmlns="http://www.w3.org/2000/svg"><path d="m-46.979-43.285h2864.21v758.976h-2864.21z" fill="#6999da"/><path d="m3288.05-310.508h-3548.96l15.897 732.047c594.814-768.204 3805.683-32.221 3552.143 3.179z" fill="#1f477d"/><path d="m2975.47 486.94c-976.73 342.29-1755.09-437.972-2398.55 0v961.44h2398.55z" fill="#467015"/><path d="m2688.02 499.657c-389.7-146.813-899.23-109.138-1388.08 18.437-254.95 66.532-586.449-168.616-755.97-175.91-460.904-19.832-349.685 79.077-658.87 157.473" fill="none"/><path d="m2716.04 507.288c-1186.99 342.29-2132.91-437.972-2914.87 0v961.432h2914.87z" fill="#7fcc26"/><path d="m1954.76 231.439c-49.21-14.229-83.16-44.259-83.16-78.968 0-48.43 66.1-87.75 147.52-87.75 30.38 0 58.62 5.473 82.1 14.852 22.82-4.68 47.32-7.221 72.8-7.221 57.12 0 109.27 12.772 148.81 33.774 23.08-12.802 54.04-20.639 88.05-20.639 71.28 0 129.14 34.422 129.14 76.82 0 42.399-57.86 76.821-129.14 76.821-6.87 0-13.6-.319-20.18-.934-24.62 57.529-112.35 100.13-216.68 100.13-108.38 0-198.84-45.968-219.26-106.885z" fill="#cbdbf2"/><path d="m277.985 139.326c-.76-2.783-1.15-5.61-1.15-8.474 0-42.114 84.337-76.305 188.218-76.305 72.914 0 136.2 16.845 167.451 41.452 138.008 5.573 244.593 41.285 244.593 84.451 0 47.027-126.506 85.206-282.326 85.206-41.711 0-81.321-2.735-116.967-7.645-32.954 12.604-77.81 20.363-127.208 20.363-101.073 0-183.131-32.481-183.131-72.489 0-29.8 45.523-55.423 110.52-66.559z" fill="#cbdbf2"/><path d="m-156.877 778.38 1634.167 434.42s-642.746-29.46-1009.647-123.19c-366.903-93.737-540.981-179.437-779.334-257.102-125.29-40.825 177.389 6.306 154.814-54.128z" fill="#4e7e17"/><path d="m-289.668 738.745 2156.878 544.305" fill="#d9d9d9" stroke="#fff" stroke-width="12.5"/><path d="m1878.95 1315.37 733.41 18.05 44.15-113.62-3177.744-537.526z" fill="#404040"/><path d="m-499.752 662.983 3112.262 527.907" fill="#d9d9d9" stroke="#fff" stroke-width="12.5"/><path d="m-507.891 675.029 3112.261 534.001" fill="#b3b3b3" stroke="#a6a6a6" stroke-width="25.41"/><path d="m-521.603 693.883 3112.263 533.997" fill="#b3b3b3" stroke="#292929" stroke-width="25.41"/><path d="m-289.668 738.745 2156.878 544.305" fill="#d9d9d9" stroke="#cacaca" stroke-width="12.5"/><path d="m-286.412 757.512 2156.882 544.308" fill="#b3b3b3" stroke="#7d7d7d" stroke-width="25.41"/><path d="m-361.828 764.368 2156.878 544.302" fill="#555" stroke="#404040" stroke-width="25.41"/><path d="m-144.836 677.433c90.841 12.662 905.232 126.262 1039.69 147.391 142.436 22.383 544.096 167.884 666.686 171.267 109.98 3.035 151.87-28.128 160.81-36.184l.03 1.248c0 103.775-170.29 132.265-263.89 132.265-234 0-1594.16-374.101-1594.16-374.101s-5.151-17.107-9.161-41.886z" fill="#fff"/><path d="m1029.15 806.78 67.15-91.089s-142.437-90.007-248.246-90.007-154.644 1.418-154.644 1.418l-10.174 126.191s52.904 6.687 166.853 18.896c78.905 8.454 179.061 34.591 179.061 34.591z" fill="none"/><path d="m-147.234 728.286c197.024 47.816 1241.794 226.59 1301.534 245.558 65.63 20.836 214.99 144.826 135.07 127.876-432.542-91.72-1393.237-326.195-1393.237-326.195s-42.086-42.052-43.373-47.239z" fill="#232323"/><path d="m1019.45 1066.5c47.33 12.78 76.8-23.57 76.8-74.788 0-51.216-36.29-92.843-73.79-92.843-37.496 0-68.402 26.787-68.402 77.546 0 50.755 18.065 77.305 65.392 90.085z" fill="#070707"/><path d="m836.094 1019.83c47.327 12.78 76.801-23.572 76.801-74.788s-36.292-92.843-73.79-92.843c-37.497 0-68.403 26.787-68.403 77.546s18.065 77.305 65.392 90.085z" fill="#070707"/><path d="m1003.89 1067.93c47.33 12.78 76.8-23.57 76.8-74.789 0-51.216-36.29-92.843-73.79-92.843-37.496 0-68.402 26.787-68.402 77.546 0 50.756 18.065 77.306 65.392 90.086z" fill="#494949"/><path d="m820.534 1021.26c47.327 12.78 76.801-23.573 76.801-74.789s-36.292-92.843-73.789-92.843c-37.498 0-68.404 26.787-68.404 77.546s18.066 77.306 65.392 90.086z" fill="#494949"/><path d="m1005.76 1051.04c37.55 10.14 60.93-18.7 60.93-59.333 0-40.632-28.79-73.657-58.54-73.657-29.749 0-54.269 21.252-54.269 61.521s14.332 61.329 51.879 71.469z" fill="#2f2f2f"/><path d="m821.223 1005.7c37.547 10.14 60.929-18.701 60.929-59.333s-28.791-73.656-58.54-73.656c-29.748 0-54.267 21.251-54.267 61.52 0 40.27 14.332 61.332 51.878 71.469z" fill="#2f2f2f"/><path d="m1722.37 961.155c0-103.774-146.51-260.453-215.69-329.636s-199.41-185.166-386.61-185.166c-187.198 0-1080.757 22.687-1196.737 53.209-115.983 30.522-59.009 219.757-59.009 219.757s753.273 133.312 1218.366 229.531c203.04 42.004 306.53 144.57 375.8 144.57 93.6 0 263.89-28.49 263.89-132.265z" fill="#fff"/><path d="m989.766 663.704 8.397 202.285 23.187-44.083 29.68 9.845 35.01-42.676 3.54.58 26.81 70.708 24.59 7.944-3.85 11.894-30.29-9.79-22.56-59.483-29.03 35.391-27.77-9.211-32.803 62.361-7.707-1.734-7.173-172.793-19.408 97.046-23.739-4.221-30.416 38.978-4.741-1.032-21.057-88.318-20.639 36.067-52.617-7.991 2.81-12.368 43.188 6.758 28.031-48.983 5.96.857 21.755 91.244 22.502-28.837 19.105 3.397 28.927-144.64c3.436.268 6.872.536 10.308.805z" fill="#c00000" fill-rule="nonzero"/><path d="m719.108 493.724 106.681-1.667" fill="none" stroke="#ddd" stroke-width="4.17"/><path d="m674.431 853.788s-13.723-291.773 44.873-360.582" fill="none" stroke="#ddd" stroke-width="4.17"/><path d="m784.446 876.124s-12.723-311.11 42.539-385.253" fill="none" stroke="#ddd" stroke-width="4.17"/><path d="m1479.18 712.911c-129.11 0-271.1-65.521-342.4-104.062s-157.056-132.004-49.14-139.712c153.77-10.984 259.63 46.482 338.2 105.025 46.87 34.922 182.45 138.749 53.34 138.749z" fill="#0f233d"/><path d="m1513.04 688.168c-83.53 0-122.63-196.99-347.25-199.531-9.28-.105-87.92-7.275-18.82-12.21 84.05-6.004 196.39 44.401 274.96 102.944 46.88 34.922 122.55 108.797 91.11 108.797z" fill="#7da6df"/><path d="m1400.47 790.076h-79.36c34.84 43.326 78.42 81.95 134.3 113.948h79.36c-51.32-33.616-98.97-69.673-134.3-113.948z" fill="#0f233d"/><path d="m1610.01 755.897-20.78 7.508c25 35.99 45.44 71.504 64.72 106.898h23.69c-15.41-33.287-37.06-70.813-67.63-114.406z" fill="#0f233d"/><path d="m-137.836 711.23c197.024 47.816 1181.596 192.858 1241.346 211.826 65.64 20.836 248.01 90.184 371.99 122.474 92.87 24.2 189.84-15.34 232.62-36.69-42.82 65.16-237.9 126.14-314.77 118.24-332.15-34.17-236.48-148.248-316.4-165.195-94.305-19.997-155.516-30.556-272.589-54.444-105.821-21.593-58.699 42.092-164.33 20.898-313.504-62.9-754.702-176.02-754.702-176.02s-21.874-35.902-23.161-41.089z" fill="#ccc"/><path d="m1582.63 1088.92c-47.02 22.26-156.31 43.9-186.64 40.78-332.16-34.17-239.12-150.873-319.04-167.82-38.94-8.257-1.41-.265 0 0 150.91 28.325 200.65 96.94 301.36 127.04 73.72 22.03 157.3 18.51 204.32 0z" fill="#8c8c8c"/><path d="m-118.151 746.566c155.539 34.03 567.164 104.878 868.426 157.73-37.906 7.286-30.035 40.137-110.248 24.043-313.504-62.9-754.702-166.02-754.702-166.02s-1.384-12.271-3.476-15.753zm-13.158-22.466c-3.408-6.049-6.1-11.149-6.527-12.87 4.477 1.087 9.36 2.223 14.63 3.407-2.891 3.412-5.61 6.59-8.103 9.463z" fill="#4e4e4e"/><path d="m-168.346 622.066 824.446 77.09s3.002-125.174 23.54-161.979c.88-1.577-788.082 16.451-788.082 16.451z" fill="#0f233d"/><path d="m834.293 539.782c97.713 4.009 120.995 37.213 119.095 63.33-2.838 39.008-10.525 77.313-20.459 81.603-43.457 18.766-73.053 18.827-125.642 16.512 0 0 5.934-162.31 27.006-161.445z" fill="#0f233d"/><path d="m742.497 553.578c21.1 0 25.336 32.076 21.169 70.426-3.603 33.154-16.071 62.425-32.171 62.425-16.099 0-32.066-29.304-28.17-62.425 5-42.517 23.072-70.426 39.172-70.426z" fill="#0f233d" stroke="#b3b3b3" stroke-width="2.72"/><path d="m401.469 806.159s-26.327-344.006 75.47-344.006h-236.943v325.578h161.473" fill="none"/><path d="m401.469 806.159s-26.327-344.006 75.47-344.006h-236.943v325.578h161.473" fill="none"/><g fill="#163358"><path d="m329.273 544.965c-8.525 36.774-12.382 81.03-13.84 122.445l-11.891-1.103c1.485-41 5.334-84.687 13.741-121.083l5.558-.12z"/><path d="m220.999 547.317c-7.044 33.363-10.573 72.604-12.139 110.208l-11.174-1.037c1.584-37.194 5.099-75.921 12.044-108.925l2.655-.058z"/><path d="m130.565 549.306c-6.13 30.465-9.455 65.642-11.108 99.926l-10.931-1.014c1.665-33.871 4.971-68.56 11.01-98.668z"/><path d="m474.736 541.885c-10.285 41.303-14.278 92.644-15.408 138.872l-12.257-1.137c1.164-45.835 5.162-96.558 15.315-137.479l2.298-.047z"/><path d="m56.145 550.957c-5.225 28.063-8.239 59.995-9.867 91.487l-10.336-.958c1.635-31.095 4.628-62.576 9.773-90.297z"/></g><path d="m712.043 754.562v-32.195l32.171 4-1 31.12c9.428 1.116 20.579 3.198 29.425 4.244v45.021c-8.83-1.275-19.981-3.594-29.425-4.953v28.664l-31.171-6v-26.426c-7.377-1.057-14.894-2.132-22.54-3.225v-42.919c7.64.905 15.157 1.795 22.54 2.669zm-46.752 36.792c-291.479-41.583-743.781-104.673-810.127-113.921-1.264-7.684-2.421-16.107-3.284-24.978 52.874 6.286 514.403 61.152 813.411 96.571z" fill="#c00000"/><path d="m1077.68 833.633c5.29 1.724 1.63.479 7.03 2.263l12.53 42.61 45.75 13.331 7.99-27.53-28.59-10.944-3.38-15.394c162.54 54.181 353.67 124.902 417.81 135.592 130.73 21.788 175.15-15.617 184.74-26.109.49 4.206.76 8.368.79 12.455-8.95 8.056-50.83 39.219-160.81 36.184-96.01-2.65-353.2-87.471-532.97-137.048l5.91-9.935 24.77 6.211zm-75.19-34.384c-.1-.861 28.59 8.554 52.42 16.241l-6.88 8.261-32.68-9.845-11.13 20.759c.23.061-.99-28.784-1.73-35.416zm-28.685-9.344c5.101 1.36-2.604-1.184 2.87.361l-.896 52.677c-21.307-5.58-21.925-5.373-39.32-9.117l3.191-6.059 26.739 6.221zm-69.421-12.712c6.424.751 23.736 5.16 41.302 9.571l-3.155 9.775-16.105-3.397-14.628 17.873c-1.796-.351-7.414-33.822-7.414-33.822zm-20.283 47.514c-19.743-3.095-43.561-8.104-87.25-14.448v-45.667c25.506 3.013 39.869 5.651 58.312 7.82l-4.985 8.449-45.188-5.758-3.81 27.368 61.617 9.991 13.368-20.817z" fill="#80cf27"/><path d="m1526.74 791.2c-7.43 2.877-11.82-.204-14.79-3.284-4.24-4.394-1.37-14.06 6.07-17.334 7.67-3.379 14.72-2.125 18.07 2.024 2.62 3.242 3.17 8.006.13 12.091 79.74 80.455 99.45 167.963 100.16 171.233.02.068.03.1.02.095 0 0 0-.032-.02-.095-.85-2.813-25.48-67.629-76.95-129.692-9.9-11.934-20.79-23.768-32.69-35.038z" fill="#436c14"/><path d="m1605.94 941.676s42.44-10.464 30.49-38.81c-7.75-18.383-44.83 3.431-58.02-22.632-11.27-22.248 31.45-30.176 16.77-53.179-14.67-23.003-43.53 15.678-61.19 0-14.53-12.9 12.59-36.089 18.49-36.37 5.91-.281 7.31-4.258 7.31-4.258l-3.97 1.554s4.11-4.058 3.97-5.353c-.15-1.295-5.39 1.266-8.98 1.266-3.6 0-6.17 5.379-9.01 6.791-6.02 2.995-31.4 27.312-13.98 42.329 27.06 23.325 50.1-17.733 59.5-5.959 17.99 22.519-29.42 29.289-16.1 57.226 15.85 33.236 55.56 10.149 59.95 20.204s.45 25.23-25.23 37.191z" fill="#73b922"/><path d="m1528.82 788.817c-7.43 2.877-11.82-.203-14.79-3.284-4.24-4.393-1.37-14.059 6.07-17.333 7.67-3.379 14.72-2.125 18.07 2.023 2.62 3.242 3.17 8.007.13 12.092 79.74 80.455 99.45 167.963 100.16 171.233.02.067.03.099.02.095 0 0 0-.032-.02-.095-1.02-3.355-35.84-94.852-109.64-164.731z" fill="#73b922"/><path d="m1631.74 928.029-4.44 3.734-1.3-1.264 4.54-4.183z" fill="#73b922"/><path d="m1608.32 938.996s42.44-10.464 30.49-38.81c-7.75-18.383-44.83 3.431-58.02-22.632-11.27-22.248 31.45-30.176 16.77-53.179-7.55-11.842-18.87-7.338-30.48-2.317-10.94 4.733-22.14 9.924-30.71 2.317-14.53-12.9 12.59-36.089 18.49-36.37 5.91-.281 7.31-4.258 7.31-4.258l-3.97 1.554s4.11-4.058 3.97-5.353c-.15-1.295-5.39 1.266-8.98 1.266-3.6 0-6.17 5.379-9.01 6.791-6.02 2.995-31.4 27.312-13.98 42.328 27.06 23.326 50.1-17.732 59.5-5.958 17.99 22.519-29.42 29.289-16.1 57.226 15.85 33.236 55.56 10.148 59.95 20.204 4.39 10.055.45 25.23-25.23 37.191z" fill="#c1eb91"/><path d="m1567.68 835.867-9.23-10.421 2.29-2.51 10.38 12.931z" fill="#436c14"/><path d="m1569.75 834.101-8.98-11.134 9.68-4.047 8.69 11.611z" fill="#73b922"/><path d="m1614.47 902.508-7.25-12.857 6.91-.907 6.44 13.764z" fill="#73b922"/><path d="m1612.21 904.425-8.89-15.533 3.66.346 8.68 15.459z" fill="#436c14"/></svg>